# xmcd
#
# Track frame offsets:
# 150
# 10494
# 19847
# 32431
# 45400
# 56498
# 67270
# 78548
# 89611
# 100274
#
# Disc length: 1485 seconds
#
#
# Revision: 0
# Processed by: cddbd v1.5.2PL0 Copyright (c) Steve Scherf et al.
# Submitted via: FreeRIP 2.951 
#
DISCID=7d05cb0a
DTITLE=Connie Smith - Connie Smith Greatest Hits
DYEAR=2000
DGENRE=Country
TTITLE0=Once A Day
TTITLE1=Cincinnati, Ohio
TTITLE2=The Hurtin's All Over
TTITLE3=I Never Once Stopped Loving You
TTITLE4=Then And Only Then
TTITLE5=Just For What I Am
TTITLE6=Just One Time
TTITLE7=Nobody But A Fool (Would Love You)
TTITLE8=Ain't Had No Lovin'
TTITLE9=If I Talk To Him
EXTD=Possible recuts, but a good album
EXTT0=
EXTT1=
EXTT2=
EXTT3=
EXTT4=
EXTT5=
EXTT6=
EXTT7=
EXTT8=
EXTT9=
PLAYORDER=
